# xmcd CD database file
# Copyright (C) 1997 Ti Kan
# 
# Track frame offsets:
#     182
#     10487
#     24890
#     34350
#     46720
#     59960
#     70312
#     81372
#     93427
#     104365
#     114375
#     126372
#     136550
#     148917
#     159165
#     171055
#     179112
#     191550
#     203360
#     214455
# 
# Disc length: 3033 seconds
# 
# Revision: 1
# Processed by: cddbd v1.4b41PL1 Copyright (c) Steve Scherf et al.
# Submitted via: DiscPlay 4.0.4
# 
DISCID=220bd714
DTITLE=George Jones - George Jones 20 Greatest Hits
DYEAR=1900
DGENRE=
TTITLE0=Walk Through This World With Me
TTITLE1=A Good Year For The Roses
TTITLE2=The Race Is On
TTITLE3=Take Me
TTITLE4=Things Have Gone To Pieces
TTITLE5=Developing My Pictures
TTITLE6=Tender Years
TTITLE7=From Here To The Door
TTITLE8=You Gotta Be My Baby
TTITLE9=Run Boy
TTITLE10=White Lightning
TTITLE11=I'm Ragged But I'm Right
TTITLE12=If My Heart Had Windows
TTITLE13=Why Baby Why
TTITLE14=They'll Never Take Her Love From Me
TTITLE15=Go Away With Me
TTITLE16=Blue Side Of Lonesome
TTITLE17=I'll Follow You Up To Our Cloud
TTITLE18=I Can't Get There From Here
TTITLE19=Seasons Of My Heart
EXTD=
EXTT0=
EXTT1=
EXTT2=
EXTT3=
EXTT4=
EXTT5=
EXTT6=
EXTT7=
EXTT8=
EXTT9=
EXTT10=
EXTT11=
EXTT12=
EXTT13=
EXTT14=
EXTT15=
EXTT16=
EXTT17=
EXTT18=
EXTT19=
PLAYORDER=
